<svg xmlns="http://www.w3.org/2000/svg" viewBox="0 0 480 84.5"><linearGradient id="a" gradientUnits="userSpaceOnUse" x1="238.607" y1="78.323" x2="272.227" y2="59.173" gradientTransform="matrix(1 0 0 -1 0 85.3)"><stop offset="0" stop-color="#006C7D"/><stop offset="1" stop-color="#60D1DE"/></linearGradient><path d="M292.7.6l-24.4 48.8L243.9.6h-16.3l32.6 65.1h16.2l16.3-32.5V82H309V.6z" fill="url(#a)"/><path d="M243.9 51.4V.7h-16.3v50.8c.2 9-6.9 16.4-15.9 16.7-9 .2-16.4-6.9-16.7-15.9V.7h-16.3v50.8c-.3 18 14 32.8 32 33.1s32.8-14 33.1-32c.1-.4.1-.8.1-1.2zM353 .7L324.5 82h16.3l5.5-16.3h29.6l5.5 16.3h16.3L369.3.7H353zm-1.7 50.4l9.8-28.9 9.9 28.9h-19.7zM455.6.7h-40.7V82h16.3V49.4h24.4c13.5 0 24.4-10.9 24.4-24.4S469.1.6 455.6.7zm0 32.5h-24.4V16.9h24.4c4.5 0 8.1 3.6 8.1 8.1.1 4.5-3.6 8.2-8.1 8.2zM48.8.7v50.8c.2 9-6.9 16.4-15.9 16.7-9 .2-16.4-6.9-16.7-15.9V.7H0v50.8c-.3 18 14 32.8 32 33.1s32.8-14 33.1-32V.7H48.8zm106.6 23.7C155.4 10.9 144.5 0 131 0H90.3v82h16.3V48.8h20.5l15 33.2H159l-16.4-36.1c7.9-4.3 12.8-12.5 12.8-21.5zM131 32.5h-24.4V16.3H131c4.5 0 8.1 3.6 8.1 8.1s-3.6 8.1-8.1 8.1z" fill="#60d1de"/></svg>